# xmcd CD database file
#
# Track frame offsets:
#	150
#	8319
#	40100
#	46390
#	63873
#	74210
#	87294
#	95202
#	108872
#	114887
#	126154
#	139428
#	147768
#	157717
#	176946
#	188096
#	194411
#	203801
#	210895
#	217375
#	223200
#	227587
#	233753
#	240769
#	244262
#	246450
#	249500
#	253034
#	266455
#	274317
#	279959
#	295599
#	304784
#	313605
#
# Disc length: 4346 seconds
#
# Revision: 0
# Processed by: cddbd v1.5.1PL2 Copyright (c) Steve Scherf et al.
# Submitted via: CDex 1.51
#
DISCID=f610f822
DTITLE=Loren Connors - Night Through
DYEAR=1900
DGENRE=Blues
TTITLE0=Come on in My Kitchen
TTITLE1=Ribbon o' Blues
TTITLE2=Pickin' it Up
TTITLE3=Tight and Loose
TTITLE4=Mother and Son
TTITLE5=Many Miles More
TTITLE6=When You Sleep
TTITLE7=Along the Way
TTITLE8=Home Again
TTITLE9=No Goodbyes
TTITLE10=Departure
TTITLE11=The Five Points
TTITLE12=Moonyean
TTITLE13=Saoirse ("Freedom")
TTITLE14=Little Shoes
TTITLE15=The Stations of the Cross
TTITLE16=The Stations of the Cross
TTITLE17=The Stations of the Cross
TTITLE18=The Stations of the Cross
TTITLE19=The Stations of the Cross
TTITLE20=The Stations of the Cross
TTITLE21=The Stations of the Cross
TTITLE22=The Stations of the Cross
TTITLE23=The Stations of the Cross
TTITLE24=Deirdre of the Sorrows
TTITLE25=Deirdre of the Sorrows
TTITLE26=Deirdre of the Sorrows
TTITLE27=Deirdre of the Sorrows
TTITLE28=Battle of Clontarf
TTITLE29=Battle of Clontarf
TTITLE30=Battle of Clontarf
TTITLE31=Battle of Clontarf
TTITLE32=Battle of Clontarf
TTITLE33=Battle of Clontarf
EXTD=
EXTT0=
EXTT1=
EXTT2=
EXTT3=
EXTT4=
EXTT5=
EXTT6=
EXTT7=
EXTT8=
EXTT9=
EXTT10=
EXTT11=
EXTT12=
EXTT13=
EXTT14=
EXTT15=
EXTT16=
EXTT17=
EXTT18=
EXTT19=
EXTT20=
EXTT21=
EXTT22=
EXTT23=
EXTT24=
EXTT25=
EXTT26=
EXTT27=
EXTT28=
EXTT29=
EXTT30=
EXTT31=
EXTT32=
EXTT33=
PLAYORDER=
